HIERARCHY
ROOT Hips
{
  OFFSET 198.102 102.367 84.0685
  CHANNELS 6 Xposition Yposition Zposition Zrotation Xrotation Yrotation
  JOINT RightUpLeg
  {
    OFFSET -8.9458 -8.66707 0.101652
    CHANNELS 3 Zrotation Xrotation Yrotation
    JOINT RightLeg
    {
      OFFSET 0 -44.4227 1.3727
      CHANNELS 3 Zrotation Xrotation Yrotation
      JOINT RightFoot
      {
        OFFSET 0.253549 -42.0924 -1.46059
        CHANNELS 3 Zrotation Xrotation Yrotation
        JOINT RightToes
        {
          OFFSET 0.04 -4.41509 8.4991
          CHANNELS 3 Zrotation Xrotation Yrotation
          End Site
          {
            OFFSET -0.08 -0.137448 9.77979
          }
        }
      }
    }
  }
  JOINT Spine
  {
    OFFSET 0 11.8905 0
    CHANNELS 3 Zrotation Xrotation Yrotation
    JOINT Spine1
    {
      OFFSET 0 25.6574 0.127663
      CHANNELS 3 Zrotation Xrotation Yrotation
      JOINT HEad
      {
        OFFSET 0 8.73416 0.011341
        CHANNELS 3 Zrotation Xrotation Yrotation
        End Site
        {
          OFFSET -0.29 12.7742 2.51395
        }
      }
      JOINT LeftShoulder1
      {
        OFFSET 8.99 -0.362252 -0.22
        CHANNELS 3 Zrotation Xrotation Yrotation
        JOINT LeftArm
        {
          OFFSET 10.2827 -0.00338 0.322123
          CHANNELS 3 Zrotation Xrotation Yrotation
          JOINT LeftForeArm
          {
            OFFSET 32.7669 0.099144 -1.42434
            CHANNELS 3 Zrotation Xrotation Yrotation
            JOINT LeftHand
            {
              OFFSET 27.5643 0.085362 1.02216
              CHANNELS 3 Zrotation Xrotation Yrotation
              End Site
              {
                OFFSET 16.7443 -0.6 1.50291
              }
            }
          }
        }
      }
      JOINT RightShoulder
      {
        OFFSET -8.99 -0.362252 -0.22
        CHANNELS 3 Zrotation Xrotation Yrotation
        JOINT RightArm
        {
          OFFSET -10.2827 -0.00338 0.322123
          CHANNELS 3 Zrotation Xrotation Yrotation
          JOINT RightForeArm
          {
            OFFSET -32.8971 0.099144 -1.42434
            CHANNELS 3 Zrotation Xrotation Yrotation
            JOINT RightHand
            {
              OFFSET -27.4921 0.085362 1.02216
              CHANNELS 3 Zrotation Xrotation Yrotation
              End Site
              {
                OFFSET -16.6312 -0.6 1.50291
              }
            }
          }
        }
      }
    }
  }
  JOINT LeftUpLeg
  {
    OFFSET 8.9458 -8.66707 0.101652
    CHANNELS 3 Zrotation Xrotation Yrotation
    JOINT LeftLeg
    {
      OFFSET 0 -44.4227 1.3727
      CHANNELS 3 Zrotation Xrotation Yrotation
      JOINT LeftFoot
      {
        OFFSET -0.253549 -42.0924 -1.46059
        CHANNELS 3 Zrotation Xrotation Yrotation
        JOINT LeftToes
        {
          OFFSET -0.04 -4.41509 8.4991
          CHANNELS 3 Zrotation Xrotation Yrotation
          End Site
          {
            OFFSET 0.08 -0.047448 9.77979
          }
        }
      }
    }
  }
}
MOTION
Frames:	9
Frame Time:	0.0166667
0	104.342	0	-0.168366	1.26018	157.941	1.56987	0.734528	5.64218	-0.937035	10.2903	2.67955	1.38329	-7.3387	0.120697	0.0462048	0.000533964	0.662642	-0.450984	-3.49089	-1.02468	-0.967272	-6.97024	-2.08293	2.05412	14.3873	17.6101	8.83E-32	1.59E-15	-3.18E-15	-1.50361	-12.9474	-8.99908	1.10572	15.5199	-7.97991	5.78368	12.4033	6.38976	8.83E-32	1.59E-15	-3.18E-15	3.3429	-11.0089	2.45463	-2.38325	19.4592	-0.544307	5.34764	10.6101	-0.940162	-3.05686	2.38447	9.80649	1.41171	9.11276	0.854975	-5.6867	-18.8149	-1.38465	1.23E-14	3.18E-14	6.36E-15
-0.0103	104.343	-0.002	-0.169016	1.24127	157.925	1.57299	0.710828	5.65856	-0.941534	10.2915	2.68189	1.3888	-7.32622	0.123139	0.0462048	0.000533964	0.662642	-0.449232	-3.48746	-1.02266	-0.963568	-6.96343	-2.07872	2.06013	14.3863	17.6088	-7.95E-16	1.59E-15	-3.18E-15	-1.49969	-12.9711	-8.98591	1.09853	15.5397	-7.99611	5.75993	12.41	6.38311	-7.95E-16	1.59E-15	-3.18E-15	3.3633	-11.0435	2.44636	-2.40139	19.4598	-0.512158	5.34037	10.5989	-0.947062	-3.05902	2.36677	9.81016	1.4131	9.11114	0.854781	-5.68391	-18.816	-1.38398	1.67E-14	3.26E-14	4.77E-15
-0.0182	104.345	-0.005	-0.168822	1.22744	157.91	1.57526	0.691971	5.68083	-0.939498	10.2951	2.67901	1.39412	-7.31478	0.124267	0.0462048	0.000533964	0.662642	-0.448468	-3.48478	-1.02097	-0.961914	-6.9581	-2.07526	2.06253	14.3969	17.6073	-7.95E-16	1.59E-15	0.00E+00	-1.50128	-12.9695	-8.9822	1.09095	15.5727	-8.00326	5.72351	12.4293	6.368	-7.95E-16	1.59E-15	0.00E+00	3.38007	-11.0568	2.44496	-2.40774	19.4875	-0.49128	5.34418	10.6082	-0.975173	-3.0594	2.35411	9.82264	1.41389	9.11127	0.848684	-5.68103	-18.8156	-1.3836	1.45E-14	3.18E-14	3.18E-15
-0.027	104.345	-0.007	-0.17	1.21823	157.899	1.57097	0.675365	5.69597	-0.93736	10.3022	2.68304	1.39618	-7.30876	0.125237	0.0462048	0.000533964	0.662642	-0.44797	-3.48003	-1.01965	-0.958894	-6.94862	-2.07359	2.06455	14.4058	17.5958	-5.30E-31	3.18E-15	9.54E-15	-1.51413	-12.9594	-8.98498	1.08576	15.6169	-8.01246	5.71785	12.433	6.36163	-5.30E-31	3.18E-15	9.54E-15	3.39519	-11.044	2.44646	-2.40648	19.531	-0.489265	5.35395	10.6416	-1.02088	-3.05903	2.34437	9.83175	1.41379	9.11234	0.845012	-5.67801	-18.8146	-1.38334	1.35E-14	3.26E-14	3.18E-15
-0.0385	104.345	-0.009	-0.172061	1.21129	157.893	1.56325	0.660618	5.6895	-0.937426	10.3115	2.70892	1.39698	-7.30503	0.126056	0.0462048	0.000533964	0.662642	-0.4477	-3.47342	-1.01886	-0.954983	-6.93542	-2.07267	2.06448	14.4084	17.5889	-8.83E-32	1.59E-15	3.18E-15	-1.5431	-12.9382	-8.98962	1.08841	15.6401	-8.02908	5.74531	12.4244	6.36238	-8.83E-32	1.59E-15	3.18E-15	3.40545	-11.034	2.4487	-2.39886	19.5823	-0.484565	5.35753	10.71	-1.05658	-3.05944	2.33384	9.83298	1.41338	9.11388	0.840839	-5.67436	-18.8132	-1.38315	1.43E-14	3.18E-14	1.59E-15
-0.0513	104.345	-0.01	-0.173149	1.20705	157.887	1.55264	0.649336	5.67605	-0.937378	10.3176	2.73533	1.39683	-7.30249	0.126732	0.0462048	0.000533964	0.662642	-0.447605	-3.46596	-1.0183	-0.950973	-6.92052	-2.07156	2.05641	14.4103	17.5839	7.95E-16	3.18E-15	6.36E-15	-1.57002	-12.9323	-8.99022	1.0815	15.6591	-8.03917	5.75715	12.4056	6.3534	7.95E-16	3.18E-15	6.36E-15	3.42071	-11.0296	2.4516	-2.3967	19.6442	-0.479036	5.34086	10.7624	-1.06993	-3.06325	2.325	9.83048	1.41262	9.11543	0.837181	-5.66927	-18.8118	-1.38295	1.47E-14	3.18E-14	3.18E-15
-0.064	104.345	-0.012	-0.176256	1.1985	157.879	1.54406	0.635274	5.66678	-0.93872	10.3193	2.76167	1.39606	-7.30137	0.127274	0.0462048	0.000533964	0.662642	-0.447673	-3.45995	-1.01793	-0.947804	-6.90854	-2.06982	2.03349	14.4113	17.5846	7.95E-16	-3.18E-15	0.00E+00	-1.61112	-12.9488	-8.98018	1.078	15.6791	-8.06854	5.72667	12.421	6.34254	7.95E-16	-3.18E-15	0.00E+00	3.41547	-11.0247	2.46377	-2.3934	19.6906	-0.47359	5.31853	10.7941	-1.09391	-3.06916	2.31163	9.82616	1.41145	9.11653	0.835149	-5.66285	-18.8102	-1.3827	1.35E-14	3.26E-14	3.18E-15
-0.0747	104.346	-0.015	-0.182063	1.18423	157.876	1.53681	0.619997	5.66476	-0.94053	10.3145	2.77889	1.39498	-7.30096	0.127689	0.0462048	0.000533964	0.662642	-0.44784	-3.45473	-1.01773	-0.946431	-6.89817	-2.06888	2.0094	14.4111	17.5847	7.95E-16	1.59E-15	3.18E-15	-1.67422	-12.9829	-8.97043	1.09647	15.7104	-8.1113	5.71363	12.4404	6.34188	7.95E-16	1.59E-15	3.18E-15	3.41386	-11.0257	2.4626	-2.3962	19.7154	-0.461343	5.30844	10.809	-1.12073	-3.08093	2.29158	9.82199	1.41014	9.1167	0.833884	-5.6569	-18.8085	-1.38237	1.45E-14	3.18E-14	9.54E-15
-0.0824	104.346	-0.02	-0.191019	1.16272	157.877	1.53074	0.600603	5.67398	-0.937886	10.3057	2.7768	1.39392	-7.30092	0.127986	0.0462048	0.000533964	0.662642	-0.447996	-3.44725	-1.01767	-0.948751	-6.88319	-2.06825	2.01994	14.3943	17.5769	-1.59E-15	0.00E+00	3.18E-15	-1.72561	-13.0209	-8.98204	1.12507	15.7545	-8.13961	5.71896	12.4408	6.34471	-1.59E-15	0.00E+00	3.18E-15	3.44584	-11.0566	2.43848	-2.41836	19.7525	-0.427568	5.30734	10.8262	-1.14413	-3.09046	2.26583	9.81996	1.40897	9.1155	0.832344	-5.65058	-18.8065	-1.38196	1.59E-14	3.10E-14	3.18E-15
